<?xml version="1.0"?>
<svg xmlns="http://www.w3.org/2000/svg" id="Capa_1" enable-background="new 0 0 512.012 512.012" height="512px" viewBox="0 0 512.012 512.012" width="512px"><g><g><path d="m74.622 295.996h90.315c-1.033 3.483-1.81 7.033-2.296 10.634-34.185 4.592-60.629 33.953-60.629 69.375 0 38.598 31.402 70 70 70h90.001c5.522 0 10-4.477 10-10s-4.478-10-10-10h-90.001c-27.57 0-50-22.43-50-50s22.43-50 50-50c5.523 0 10-4.477 10-10 0-8.792 2.312-17.434 6.686-24.994 8.921-15.424 25.518-25.006 43.314-25.006 12.903 0 25.186 4.984 34.583 14.033 4.731 4.557 12.51 3.385 15.688-2.365 14.207-25.702 40.926-41.668 69.729-41.668 43.037 0 80 34.645 80 80 0 5.523 4.478 10 10 10 27.57 0 50 22.43 50 50s-22.43 50-50 50h-89.999c-5.522 0-10 4.477-10 10s4.478 10 10 10h89.999c38.598 0 70-31.402 70-70 0-35.359-26.352-64.678-60.447-69.351-2.767-28.899-18.233-55.591-42.049-72.409.321-2.73.496-5.483.496-8.241 0-35.354-26.344-64.67-60.434-69.349-4.73-50.771-47.58-90.651-99.566-90.651-32.02 0-62.234 15.89-80.931 42.019-11.513-7.803-25.079-12.019-39.069-12.019-35.714 0-64.842 26.614-69.378 60.63-37.114 5.018-65.576 39.2-59.915 79.483 4.806 34.143 36.577 59.889 73.903 59.879zm-5.887-119.973c6.187-.144 11.148-5.104 11.294-11.28.663-26.874 23.085-48.737 49.983-48.737 12.295 0 24.146 4.583 33.437 12.964 2.631 2.331 6.112 3.354 9.543 2.802 3.428-.55 6.406-2.604 8.176-5.643 14.595-25.124 40.331-40.123 68.843-40.123 44.112 0 80 35.888 80 80 0 5.523 4.478 10 10 10 26.731 0 48.629 21.086 49.937 47.499-11.981-4.924-24.86-7.499-37.937-7.499-32.171 0-62.23 15.838-80.934 42.005-11.493-7.803-25.01-12.005-39.066-12.005-22.928 0-44.426 11.364-57.437 30h-99.952c-27.417 0-50.673-18.346-54.097-42.671-4.33-30.806 19.137-56.595 48.21-57.312z" data-original="#000000" class="active-path" fill="#000000"/><circle cx="307.013" cy="436.006" r="10" data-original="#000000" class="active-path" fill="#000000"/></g></g> </svg>
